<svg width="32" height="28" viewBox="0 0 32 28" fill="none" xmlns="http://www.w3.org/2000/svg">
<path d="M15.6007 26.789L15.5999 26.785C15.3982 26.7857 15.2031 26.7128 15.0514 26.5798L15.0501 26.5787C13.7856 25.4748 12.5671 24.4318 11.4929 23.5167L11.481 23.5066L11.4688 23.4969C8.73884 21.3148 6.18934 18.9162 3.84506 16.3242L3.84512 16.3242L3.83661 16.315C2.07865 14.4195 1.07141 11.9486 1.00319 9.3644C0.966303 7.16487 1.75767 5.03188 3.22018 3.3887C3.91711 2.63006 4.76506 2.0256 5.70957 1.6142C6.6562 1.20187 7.67878 0.992625 8.71129 0.99998L8.71129 1.00004L8.72234 0.999998C10.2738 0.993895 11.7813 1.51536 12.9974 2.47883L12.9974 2.47884L13.0025 2.4828C13.6845 3.01609 14.2864 3.64466 14.7897 4.34922L15.6032 5.48818L16.417 4.34946C16.9192 3.64681 17.5195 3.01979 18.1997 2.48754L18.1997 2.48756L18.2052 2.48319C19.4207 1.51816 20.9283 0.995138 22.4803 1L22.4803 1.00006L22.4911 0.999976C23.5244 0.992003 24.5478 1.20095 25.4952 1.6133C26.4405 2.02472 27.2892 2.62949 27.9866 3.38866C29.4488 5.03148 30.2401 7.16391 30.2036 9.36296C30.1373 11.9494 29.13 14.423 27.3703 16.3199L27.3702 16.3199L27.3623 16.3286C25.0165 18.918 22.4656 21.314 19.7347 23.4934L19.7222 23.5033L19.7101 23.5136C18.6316 24.4319 17.4169 25.4721 16.1462 26.5832L16.1456 26.5837C15.9947 26.7158 15.8011 26.7887 15.6007 26.789Z" stroke="#15181D" stroke-width="2"/>
</svg>
