<svg width="34" height="34" viewBox="0 0 34 34" fill="none" xmlns="http://www.w3.org/2000/svg">
<path opacity="0.5" d="M15.2522 33.1387C12.5447 32.9558 9.92878 32.0846 7.65224 30.6077C5.76841 29.4217 4.14725 27.8627 2.88854 26.0267C1.62984 24.1907 0.760228 22.1164 0.333242 19.9317C0.0355513 18.5146 -0.0633985 17.063 0.039242 15.6187C0.246387 12.0575 1.6245 8.66466 3.95924 5.9677C6.20473 3.24271 9.30628 1.35781 12.7592 0.619695C15.6778 -0.103306 18.7403 0.00393975 21.6011 0.929327C24.4619 1.85471 27.0071 3.56139 28.9492 5.8567C31.0083 8.11743 32.3427 10.9433 32.7802 13.9697C33.2098 16.3976 33.0772 18.8916 32.3926 21.2603C31.708 23.629 30.4897 25.8092 28.8312 27.6337C26.3655 30.4673 22.9885 32.3519 19.2822 32.9627C18.4046 33.116 17.5151 33.1907 16.6242 33.1857C16.1702 33.1857 15.7132 33.1687 15.2522 33.1387ZM10.6782 16.1487C10.0339 16.3936 9.45674 16.7878 8.99422 17.2989C8.5317 17.8101 8.19697 18.4236 8.0175 19.0892C7.83803 19.7547 7.81893 20.4534 7.96178 21.1278C8.10462 21.8021 8.40533 22.433 8.83924 22.9687C9.33828 23.6081 10.0108 24.0903 10.7764 24.3579C11.5421 24.6255 12.3686 24.6671 13.1572 24.4777C13.783 24.3418 14.3711 24.0696 14.8798 23.6806C15.3884 23.2915 15.805 22.7951 16.0999 22.2267C16.3949 21.6583 16.5609 21.0319 16.5862 20.392C16.6115 19.7522 16.4954 19.1146 16.2462 18.5247C16.1782 18.3587 16.1222 18.2247 16.2852 18.0667C17.3232 17.0427 18.3546 16.012 19.3792 14.9747C19.5382 14.8137 19.6462 14.8167 19.7992 14.9747C20.1172 15.3087 20.4402 15.6377 20.7802 15.9497C20.8559 16.0307 20.9476 16.0951 21.0495 16.1387C21.1514 16.1824 21.2613 16.2044 21.3722 16.2034C21.483 16.2024 21.5924 16.1783 21.6935 16.1327C21.7946 16.0872 21.8851 16.0211 21.9592 15.9387C22.0389 15.8619 22.1021 15.7696 22.1449 15.6676C22.1878 15.5656 22.2095 15.4559 22.2086 15.3453C22.2078 15.2346 22.1844 15.1253 22.14 15.0239C22.0956 14.9226 22.031 14.8313 21.9502 14.7557C21.7622 14.5497 21.5592 14.3557 21.3622 14.1617C20.7622 13.5617 20.7712 13.5707 21.3782 12.9717C21.5522 12.8007 21.6592 12.8077 21.8212 12.9777C22.2352 13.4117 22.6632 13.8337 23.0892 14.2567C23.2229 14.4111 23.3952 14.5273 23.5884 14.5933C23.7817 14.6594 23.989 14.673 24.1892 14.6327C24.3993 14.5953 24.5952 14.5013 24.7557 14.3609C24.9163 14.2204 25.0354 14.0387 25.1004 13.8355C25.1653 13.6323 25.1735 13.4152 25.1242 13.2076C25.0748 13.0001 24.9697 12.8099 24.8202 12.6577C24.4092 12.2067 23.9682 11.7817 23.5272 11.3577C23.3482 11.1857 23.2882 11.0637 23.4572 10.8247C23.6285 10.5928 23.709 10.3062 23.6836 10.0191C23.6581 9.73188 23.5286 9.46393 23.3192 9.26569C23.2027 9.11297 23.0533 8.98841 22.8821 8.90124C22.7109 8.81406 22.5223 8.76651 22.3303 8.76209C22.1382 8.75767 21.9477 8.79651 21.7726 8.87572C21.5976 8.95493 21.4427 9.07249 21.3192 9.2197C19.0279 11.507 16.7399 13.7984 14.4552 16.0937C14.3921 16.1769 14.3006 16.234 14.1981 16.2542C14.0957 16.2745 13.9893 16.2565 13.8992 16.2037C13.3716 15.9741 12.8027 15.8543 12.2272 15.8517C11.6972 15.8559 11.1723 15.9566 10.6782 16.1487ZM11.5262 21.1487C11.3029 20.9773 11.1499 20.7302 11.0962 20.4539C11.0425 20.1775 11.0917 19.8911 11.2346 19.6485C11.3776 19.406 11.6043 19.2241 11.872 19.1372C12.1398 19.0503 12.4301 19.0643 12.6882 19.1767C12.8337 19.2392 12.9645 19.3313 13.0723 19.4471C13.1802 19.5629 13.2628 19.6999 13.3148 19.8494C13.3668 19.9988 13.3871 20.1575 13.3745 20.3153C13.3618 20.473 13.3164 20.6264 13.2412 20.7657C13.1691 20.8809 13.0874 20.99 12.9972 21.0917C12.7626 21.2726 12.4782 21.3772 12.1822 21.3917C11.9413 21.3865 11.7095 21.299 11.5252 21.1437L11.5262 21.1487Z" fill="white"/>
</svg>
