<svg width="38" height="38" viewBox="0 0 38 38" fill="none" xmlns="http://www.w3.org/2000/svg">
<path fill-rule="evenodd" clip-rule="evenodd" d="M16.7291 0.323042C12.2493 0.760026 8.08175 2.81262 5.00463 6.09751C1.92752 9.38241 0.151248 13.675 0.00750584 18.1737C-0.136236 22.6725 1.36238 27.0697 4.22352 30.5443C7.08465 34.019 11.1127 36.3334 15.5554 37.0555C19.9981 37.7776 24.5518 36.8579 28.366 34.4682C32.1803 32.0785 34.9944 28.3822 36.2827 24.0695C37.5711 19.7568 37.2457 15.1227 35.3673 11.0323C33.4888 6.94202 30.1858 3.67524 26.0751 1.84204C23.126 0.595531 19.921 0.074624 16.7291 0.323042ZM19.9781 6.02304C21.3072 6.3443 22.489 7.10478 23.3321 8.18135C24.1751 9.25792 24.6302 10.5875 24.6234 11.9549C24.6167 13.3223 24.1487 14.6474 23.295 15.7156C22.4414 16.7839 21.2522 17.5327 19.92 17.8409C18.5877 18.149 17.1905 17.9985 15.9545 17.4137C14.7185 16.8288 13.716 15.8439 13.1095 14.6184C12.503 13.3928 12.3279 11.9984 12.6126 10.661C12.8972 9.32355 13.625 8.12134 14.6781 7.24904C15.4047 6.64552 16.2624 6.22033 17.1826 6.00745C18.1029 5.79457 19.0602 5.79991 19.9781 6.02304ZM23.1531 21.148C27.3021 21.821 29.8351 27.123 27.0651 29.334C24.6688 31.2735 21.683 32.3381 18.6003 32.3523C15.5175 32.3665 12.522 31.3294 10.1081 29.412C9.57949 29.0527 9.1803 28.5332 8.9693 27.9299C8.7583 27.3266 8.74665 26.6715 8.93606 26.061C9.18328 24.8483 9.78298 23.7356 10.66 22.8623C11.537 21.989 12.6523 21.3941 13.8661 21.152C14.4181 21.059 22.5901 21.052 23.1541 21.152" fill="white"/>
</svg>
