<svg width="39" height="31" viewBox="0 0 39 31" fill="none" xmlns="http://www.w3.org/2000/svg">
<path opacity="0.5" fill-rule="evenodd" clip-rule="evenodd" d="M38.6273 23.0254C37.8795 23.7555 36.9836 24.3165 36.0003 24.6704L22.1253 29.6544V25.9794L32.3363 22.3414C33.4953 21.9264 33.6733 21.3414 32.7313 21.0314C31.471 20.74 30.1541 20.8093 28.9313 21.2314L22.1313 23.6314V19.8084L22.5233 19.6754C24.0614 19.1792 25.6469 18.8441 27.2543 18.6754C30.2314 18.3677 33.2397 18.7261 36.0613 19.7244C39.0563 20.6704 39.3933 22.0654 38.6333 23.0244L38.6273 23.0254ZM23.4463 16.7664V7.36644C23.4463 6.26644 23.2463 5.24644 22.2073 4.95844C21.4143 4.70444 20.9223 5.44044 20.9223 6.54344V30.0824L14.5743 28.0674V0.00244141C17.5343 0.628424 20.4544 1.42984 23.3193 2.40244C28.6953 4.24844 30.5193 6.54544 30.5193 11.7214C30.5193 16.7664 27.4053 18.6784 23.4483 16.7684L23.4463 16.7664ZM2.92531 25.5944C-0.148695 24.7284 -0.660695 22.9244 0.740305 21.8854C1.82951 21.1761 3.00595 20.6107 4.2403 20.2034L13.3403 16.9674V20.6574L6.79031 23.0024C5.63331 23.4174 5.45531 24.0024 6.39531 24.3134C7.65571 24.6039 8.97236 24.5347 10.1953 24.1134L13.3373 22.9734V26.2734C13.1373 26.3084 12.9163 26.3444 12.7103 26.3784C9.43182 26.9086 6.07375 26.6383 2.92231 25.5904L2.92531 25.5944ZM36.6053 27.0564C36.8994 27.056 37.1871 27.1429 37.4319 27.306C37.6767 27.4691 37.8676 27.7012 37.9804 27.9728C38.0933 28.2444 38.1231 28.5434 38.066 28.8319C38.009 29.1205 37.8676 29.3856 37.6598 29.5938C37.4521 29.802 37.1872 29.9439 36.8988 30.0016C36.6103 30.0592 36.3113 30.0301 36.0394 29.9177C35.7676 29.8054 35.5351 29.615 35.3715 29.3705C35.2079 29.1261 35.1205 28.8386 35.1203 28.5444C35.1206 28.1504 35.277 27.7725 35.5554 27.4936C35.8337 27.2147 36.2113 27.0575 36.6053 27.0564ZM35.3693 28.5444C35.3698 28.8721 35.5002 29.1862 35.7319 29.4178C35.9636 29.6495 36.2777 29.7799 36.6053 29.7804C36.9331 29.7804 37.2475 29.6502 37.4793 29.4184C37.7111 29.1866 37.8413 28.8722 37.8413 28.5444C37.8413 28.2166 37.7111 27.9023 37.4793 27.6705C37.2475 27.4387 36.9331 27.3084 36.6053 27.3084C36.2775 27.3084 35.9631 27.4387 35.7313 27.6705C35.4995 27.9023 35.3693 28.2166 35.3693 28.5444ZM37.0543 27.7444C37.1325 27.7779 37.1983 27.8351 37.2422 27.908C37.2862 27.9808 37.3062 28.0656 37.2993 28.1504C37.3026 28.239 37.28 28.3266 37.2343 28.4024C37.201 28.4504 37.1586 28.4912 37.1093 28.5224C37.1473 28.5436 37.1811 28.5714 37.2093 28.6044C37.2507 28.6701 37.271 28.7469 37.2673 28.8244L37.2753 29.0364C37.2753 29.0792 37.2803 29.1218 37.2903 29.1634C37.2917 29.1784 37.2967 29.1927 37.3049 29.2053C37.3131 29.2178 37.3242 29.2282 37.3373 29.2354L37.3593 29.2464V29.3464H37.0393L37.0283 29.3274C37.0188 29.3067 37.0117 29.2849 37.0073 29.2624C37.002 29.218 36.9996 29.1732 37.0003 29.1284L36.9873 28.8654C36.9903 28.83 36.9832 28.7944 36.9667 28.7629C36.9503 28.7314 36.9251 28.7052 36.8943 28.6874C36.8372 28.6675 36.7767 28.659 36.7163 28.6624H36.2653V29.3404H35.9773V27.6864H36.7453C36.8522 27.6828 36.9586 27.7022 37.0573 27.7434L37.0543 27.7444ZM36.2613 28.4114H36.7203C36.7964 28.4159 36.8721 28.3982 36.9383 28.3604C36.9645 28.337 36.9846 28.3076 36.997 28.2747C37.0094 28.2417 37.0136 28.2063 37.0093 28.1714C37.0145 28.1319 37.0077 28.0918 36.9899 28.0562C36.972 28.0205 36.944 27.991 36.9093 27.9714C36.8594 27.9502 36.8055 27.9403 36.7513 27.9424H36.2643V28.4094L36.2613 28.4114Z" fill="white"/>
</svg>
