<svg width="34" height="40" viewBox="0 0 34 40" fill="none" xmlns="http://www.w3.org/2000/svg">
<path d="M28.644 39.2958H4.918C3.61203 39.2921 2.36085 38.7706 1.43889 37.8456C0.516929 36.9206 -0.000534438 35.6678 4.14207e-07 34.3618C8.37347e-05 34.0992 0.0208143 33.8371 0.0620004 33.5778L1.452 15.9858C1.52511 14.7313 2.07421 13.552 2.98724 12.6886C3.90027 11.8252 5.10838 11.3428 6.365 11.3398H7.683C7.57575 10.7663 7.52186 10.1842 7.522 9.6008C7.522 7.14516 8.4975 4.79009 10.2339 3.0537C11.9703 1.3173 14.3254 0.341797 16.781 0.341797C19.2366 0.341797 21.5917 1.3173 23.3281 3.0537C25.0645 4.79009 26.04 7.14516 26.04 9.6008C26.0403 10.1849 25.9864 10.7677 25.879 11.3418H27.2C28.4585 11.3445 29.6682 11.8287 30.581 12.6951C31.4938 13.5614 32.0406 14.7442 32.109 16.0008L33.5 33.5758C33.5412 33.8361 33.562 34.0992 33.562 34.3628C33.5617 35.6681 33.0441 36.92 32.1224 37.8443C31.2007 38.7686 29.9503 39.2898 28.645 39.2938L28.644 39.2958ZM24.015 15.9858C23.671 15.9856 23.3347 16.0874 23.0486 16.2784C22.7625 16.4693 22.5394 16.7409 22.4077 17.0586C22.2759 17.3764 22.2413 17.726 22.3083 18.0634C22.3753 18.4008 22.5408 18.7108 22.784 18.9541C23.0272 19.1974 23.337 19.3631 23.6744 19.4303C24.0117 19.4975 24.3614 19.4631 24.6793 19.3315C24.9971 19.1999 25.2687 18.977 25.4599 18.691C25.651 18.405 25.753 18.0688 25.753 17.7248C25.753 17.2638 25.5699 16.8216 25.244 16.4955C24.9181 16.1694 24.476 15.9861 24.015 15.9858ZM9.548 15.9858C9.20402 15.9852 8.86758 16.0866 8.58126 16.2773C8.29493 16.4679 8.07157 16.7392 7.93943 17.0568C7.80729 17.3744 7.77231 17.724 7.83891 18.0615C7.9055 18.399 8.07069 18.7091 8.31358 18.9527C8.55646 19.1963 8.86613 19.3623 9.20341 19.4299C9.54069 19.4975 9.89044 19.4635 10.2084 19.3323C10.5264 19.2011 10.7983 18.9785 10.9897 18.6927C11.1812 18.4069 11.2836 18.0708 11.284 17.7268C11.2845 17.2658 11.102 16.8234 10.7764 16.4969C10.4509 16.1704 10.009 15.9866 9.548 15.9858ZM16.781 3.5058C15.1678 3.51056 13.6223 4.15488 12.4835 5.29745C11.3447 6.44003 10.7055 7.9876 10.706 9.6008V11.3418H22.858V9.6008C22.8599 7.98656 22.2211 6.43756 21.0819 5.29387C19.9427 4.15019 18.3962 3.5053 16.782 3.5008L16.781 3.5058Z" fill="white"/>
</svg>
