<svg width="31" height="31" viewBox="0 0 31 31" fill="none" xmlns="http://www.w3.org/2000/svg">
<path opacity="0.5" d="M17.6433 30.0622C17.5503 30.0252 17.5433 28.6482 17.5433 15.0622C17.5433 6.82919 17.5633 0.0771931 17.5873 0.0621931C17.6113 0.0471931 18.8503 0.0181931 20.3443 0.0181931C21.4365 -0.0240754 22.5303 0.00732911 23.6183 0.112193C25.1901 0.374411 26.6424 1.11592 27.7766 2.23524C28.9108 3.35456 29.6714 4.79701 29.9543 6.36519C30.0423 6.82019 30.0543 7.88519 30.0543 15.0282C30.0543 23.9782 30.0653 23.6662 29.6743 24.8372C29.5418 25.21 29.3858 25.5741 29.2073 25.9272C28.6214 27.0458 27.7715 28.0048 26.7315 28.7209C25.6914 29.4371 24.4924 29.8889 23.2383 30.0372C22.8823 30.0742 21.0203 30.0982 19.5383 30.0982C18.5373 30.0982 17.7113 30.0872 17.6433 30.0622ZM20.5933 15.6442C20.4394 16.2184 20.4311 16.822 20.5693 17.4002C20.7475 18.0154 21.1168 18.558 21.6238 18.9494C22.1308 19.3409 22.7491 19.5609 23.3894 19.5776C24.0297 19.5943 24.6587 19.4068 25.1855 19.0424C25.7122 18.6779 26.1093 18.1553 26.3193 17.5502C26.5269 16.9065 26.529 16.2141 26.3253 15.5692C26.1619 15.099 25.8858 14.676 25.5211 14.3373C25.1564 13.9986 24.7142 13.7544 24.2333 13.6262C23.4834 13.4313 22.6872 13.532 22.0095 13.9076C21.3318 14.2832 20.8244 14.905 20.5923 15.6442H20.5933ZM10.5173 30.0812C9.08272 30.1494 7.64503 30.1056 6.21728 29.9502C4.72428 29.6393 3.35504 28.8979 2.27863 27.8175C1.20223 26.7372 0.465799 25.3653 0.160282 23.8712C0.0362818 23.2922 0.0292818 23.1182 0.0112818 15.6182C-0.0197182 7.45419 0.000281811 6.83819 0.273282 5.78519C0.651863 4.35106 1.43313 3.05529 2.52472 2.05105C3.61632 1.04682 4.97261 0.376106 6.43328 0.118193C7.84564 0.0120678 9.26261 -0.0193094 10.6783 0.0241931C14.3253 0.0181931 14.4313 0.0241931 14.4933 0.136193C14.5373 0.223193 14.5563 4.98119 14.5563 15.0832C14.5563 28.7102 14.5503 29.9122 14.4563 30.0052C14.3923 30.0692 14.2013 30.0922 12.9563 30.0922C12.3913 30.0932 11.6053 30.0882 10.5173 30.0812ZM9.65828 2.45319C6.99328 2.45919 6.61428 2.49719 5.79328 2.82719C4.981 3.15631 4.26206 3.68002 3.6997 4.35223C3.13734 5.02445 2.74881 5.82456 2.56828 6.68219C2.43728 7.29919 2.43728 22.7942 2.57528 23.4232C2.77466 24.4023 3.2477 25.3047 3.93945 26.0256C4.63121 26.7466 5.5133 27.2565 6.48328 27.4962C7.49006 27.6668 8.51334 27.7192 9.53228 27.6522L12.0663 27.6832V2.44719L9.65828 2.45319ZM7.39228 11.8392C7.02103 11.8605 6.65153 11.774 6.32828 11.5902C5.74089 11.3086 5.2684 10.8333 4.99028 10.2442C4.81286 9.93202 4.72465 9.5771 4.73528 9.21819C4.69691 8.78622 4.76094 8.35129 4.92218 7.94871C5.08342 7.54613 5.33733 7.18724 5.66328 6.90119C6.04533 6.59046 6.49182 6.36876 6.97028 6.25219C7.34601 6.18138 7.73213 6.18662 8.1058 6.26761C8.47946 6.3486 8.8331 6.50369 9.1458 6.72371C9.45849 6.94374 9.72389 7.22422 9.92631 7.54859C10.1287 7.87296 10.2641 8.23462 10.3243 8.61219C10.4275 9.27701 10.2889 9.95679 9.93364 10.5281C9.57843 11.0995 9.03013 11.5246 8.38828 11.7262C8.15865 11.8109 7.91495 11.851 7.67028 11.8442C7.58928 11.8452 7.50028 11.8432 7.39228 11.8392Z" fill="white"/>
</svg>
