<svg width="34" height="34" viewBox="0 0 34 34" fill="none" xmlns="http://www.w3.org/2000/svg">
<path opacity="0.5" fill-rule="evenodd" clip-rule="evenodd" d="M15.1588 0.0576974C11.0997 0.453929 7.32366 2.31402 4.53571 5.29063C1.74775 8.26723 0.138531 12.1568 0.00853782 16.2331C-0.121455 20.3094 1.23667 24.2936 3.8293 27.4418C6.42193 30.59 10.0718 32.6869 14.0974 33.341C18.1229 33.995 22.2489 33.1615 25.7049 30.996C29.1608 28.8306 31.7105 25.4813 32.8777 21.5735C34.0449 17.6658 33.7499 13.4668 32.0477 9.76064C30.3455 6.0545 27.3526 3.09461 23.6278 1.4337C20.9555 0.304285 18.0512 -0.167585 15.1588 0.0576974ZM18.1028 5.2227C19.3068 5.51346 20.3774 6.20213 21.1412 7.17717C21.9051 8.15221 22.3175 9.35655 22.3116 10.5952C22.3057 11.8338 21.8819 13.0341 21.1088 14.0019C20.3357 14.9696 19.2586 15.648 18.0519 15.9273C16.8452 16.2066 15.5795 16.0705 14.4598 15.5408C13.3401 15.0112 12.432 14.1191 11.8825 13.009C11.333 11.899 11.1743 10.6359 11.4321 9.42444C11.6898 8.21294 12.349 7.12391 13.3028 6.3337C13.9609 5.78723 14.7377 5.40217 15.5711 5.20927C16.4045 5.01637 17.2715 5.02097 18.1028 5.2227ZM20.9798 18.9227C24.7388 19.5327 27.0348 24.3367 24.5238 26.3397C22.3527 28.0973 19.6474 29.0623 16.8541 29.0756C14.0608 29.0889 11.3464 28.1496 9.15877 26.4127C8.67944 26.0882 8.31709 25.6182 8.12516 25.0721C7.93322 24.5261 7.92187 23.9327 8.09277 23.3797C8.3173 22.2811 8.86086 21.2732 9.65542 20.482C10.45 19.6908 11.4602 19.1515 12.5598 18.9317C13.0598 18.8477 20.4648 18.8457 20.9758 18.9317" fill="white"/>
</svg>
