<svg width="31" height="31" viewBox="0 0 31 31" fill="none" xmlns="http://www.w3.org/2000/svg">
<g opacity="0.5">
<path d="M13.5293 30.0204C11.1476 29.7754 8.85915 28.9638 6.85527 27.6534C5.16727 26.5534 4.78627 26.0994 4.78627 25.1964C4.78627 23.3814 6.78627 20.2034 10.1953 16.5804C12.1343 14.5224 14.8343 12.1104 15.1263 12.1804C15.6943 12.3074 20.2333 16.7344 21.9323 18.8194C24.6193 22.1194 25.8543 24.8134 25.2273 26.0194C24.7503 26.9344 21.7903 28.7194 19.6153 29.4084C17.6433 29.9925 15.5795 30.2028 13.5303 30.0284L13.5293 30.0204ZM2.51027 23.3084C1.09017 21.1087 0.246591 18.5869 0.0572683 15.9754C-0.0503112 14.7473 0.036079 13.5098 0.313268 12.3084C0.812182 9.54028 2.07861 6.96792 3.96827 4.88444C4.72227 4.09944 4.79027 4.08444 5.70927 4.39044C7.27329 5.0589 8.68721 6.03451 9.86727 7.25944L10.9463 8.23545L10.3573 8.95944C7.61827 12.3206 5.35998 16.0462 3.64727 20.0294C3.09859 21.2438 2.89913 22.587 3.07127 23.9084C3.24327 24.3604 3.08527 24.1914 2.51027 23.3084ZM27.1283 23.6744C27.2158 22.5974 27.0631 21.5143 26.6813 20.5034C25.7913 17.7904 22.8183 12.7424 20.0883 9.31144L19.2293 8.23044L20.1593 7.37644C21.0713 6.49993 22.0659 5.7136 23.1293 5.02844C23.7912 4.59965 24.5349 4.31262 25.3133 4.18544C25.5853 4.18544 26.5423 5.17844 27.3133 6.26244C28.5392 8.01472 29.3953 9.99839 29.8293 12.0924C30.1228 13.9689 30.1393 15.8782 29.8783 17.7594C29.6277 18.982 29.2497 20.1748 28.7503 21.3184C28.3084 22.2379 27.7934 23.1204 27.2103 23.9574C27.0213 24.1974 27.0213 24.1964 27.1273 23.6794L27.1283 23.6744ZM13.7813 3.67444C12.4224 2.99771 10.9861 2.48897 9.50427 2.15945C9.03203 2.08935 8.55438 2.06257 8.07727 2.07945C7.19127 2.12445 7.23127 2.07944 8.65227 1.40644C9.76493 0.871108 10.941 0.478982 12.1523 0.239445C14.0768 -0.0771078 16.0399 -0.0798098 17.9653 0.231445C19.5561 0.564313 21.0879 1.13434 22.5093 1.92244L22.8243 2.11644L22.1003 2.07945C20.0751 2.15995 18.0959 2.70754 16.3173 3.67944C15.8921 3.90085 15.4539 4.09654 15.0053 4.26544C14.9623 4.25744 14.4053 3.98844 13.7763 3.66544L13.7813 3.67444Z" fill="white"/>
</g>
</svg>
